<svg width="220" height="320" viewBox="0 0 220 320" fill="none" xmlns="http://www.w3.org/2000/svg" role="img" aria-label="Olive branch">
  <path d="M120 12C86 92 96 178 52 306" stroke="#183c2c" stroke-width="7" stroke-linecap="round"/>
  <path d="M104 56C61 42 35 50 18 82C56 93 84 84 104 56Z" fill="#49633a"/>
  <path d="M113 96C157 77 187 83 206 114C166 130 136 123 113 96Z" fill="#607a44"/>
  <path d="M89 132C48 118 24 128 10 159C48 169 74 160 89 132Z" fill="#385b34"/>
  <path d="M101 178C144 160 174 168 193 198C153 213 124 207 101 178Z" fill="#526f3c"/>
  <path d="M73 220C36 207 15 216 2 244C37 254 61 247 73 220Z" fill="#31502f"/>
  <path d="M86 260C123 243 150 249 168 276C134 291 107 286 86 260Z" fill="#66804a"/>
</svg>
